<svg xmlns="http://www.w3.org/2000/svg" viewBox="0 0 32 32" fill="none">
  <rect width="32" height="32" rx="8" fill="url(#logo-g)" />
  <path
    fill="#fff"
    d="M8 8h7v7H8V8Zm2 2v3h3v-3h-3Zm7-2h7v7h-7V8Zm2 2v3h3v-3h-3ZM8 17h7v7H8v-7Zm2 2v3h3v-3h-3Zm7-2h3v3h-3v-3Zm4 4h3v3h-3v-3Zm-4 0h2v3h-2v-3Zm6-4h1v3h-1v-3Z"
  />
  <defs>
    <linearGradient id="logo-g" x1="0" y1="0" x2="32" y2="32">
      <stop stop-color="#4f46e5" />
      <stop offset="1" stop-color="#7c3aed" />
    </linearGradient>
  </defs>
</svg>
